<?xml version="1.0" encoding="UTF-8"?>
<svg width="115px" height="107px" viewBox="0 0 115 107" version="1.1" xmlns="http://www.w3.org/2000/svg" xmlns:xlink="http://www.w3.org/1999/xlink">
    <!-- Generator: Sketch 64 (93537) - https://sketch.com -->
    <title>Group 4</title>
    <desc>Created with Sketch.</desc>
    <defs>
        <filter x="-4.9%" y="-9.4%" width="109.8%" height="118.8%" filterUnits="objectBoundingBox" id="filter-1">
            <feOffset dx="1" dy="2" in="SourceAlpha" result="shadowOffsetOuter1"></feOffset>
            <feGaussianBlur stdDeviation="2" in="shadowOffsetOuter1" result="shadowBlurOuter1"></feGaussianBlur>
            <feColorMatrix values="0 0 0 0 0.2   0 0 0 0 0.2   0 0 0 0 0.2  0 0 0 0.2 0" type="matrix" in="shadowBlurOuter1" result="shadowMatrixOuter1"></feColorMatrix>
            <feMerge>
                <feMergeNode in="shadowMatrixOuter1"></feMergeNode>
                <feMergeNode in="SourceGraphic"></feMergeNode>
            </feMerge>
        </filter>
    </defs>
    <g id="Symbols" stroke="none" stroke-width="1" fill="none" fill-rule="evenodd">
        <g id="PoC-Add-New" transform="translate(-65.000000, -11.000000)">
            <g id="编组-8-copy" filter="url(#filter-1)">
                <g id="编组-7备份">
                    <g id="Group-4" transform="translate(40.000000, 9.000000)">
                        <text id="Create-New-PoC" font-family="OpenSans-Regular, Open Sans" font-size="14" font-weight="normal" line-spacing="24" fill="#999999">
                            <tspan x="28.8632812" y="101">Create New PoC</tspan>
                        </text>
                        <ellipse id="Oval-4" fill="#EAEDF2" cx="81.7819383" cy="74.1791768" rx="52.777533" ry="7.52542373"></ellipse>
                        <path d="M31.1356433,47.0112136 C30.9752245,47.0113651 30.8139993,47.0005242 30.6521098,46.9782581 C30.6560169,47.0535771 30.6579777,47.1291724 30.6579062,47.2049509 C30.6577315,47.3899965 30.6452719,47.5755834 30.6201746,47.7616043 C30.7835517,47.7414868 30.9466538,47.7314711 31.1093933,47.7313174 C31.202409,47.7312296 31.2956084,47.7343697 31.3889758,47.7407893 C31.3814101,47.6417159 31.3776673,47.5416733 31.3777625,47.4407636 C31.3779004,47.2947269 31.3864261,47.1480283 31.1356433,47.0112136 Z" id="Rectangle-18-Copy" stroke="#C0CAD8" stroke-width="2" transform="translate(31.122506, 47.266647) rotate(45.000000) translate(-31.122506, -47.266647) "></path>
                        <path d="M130.282056,22.173947 C130.207296,22.2485659 130.129212,22.3201709 130.047759,22.3886746 C130.112846,22.4451389 130.17589,22.5037272 130.236672,22.5643947 C130.257563,22.5852461 130.278213,22.6063703 130.298619,22.6277687 C130.323177,22.6020318 130.34815,22.5763415 130.373591,22.5509488 C130.426726,22.497914 130.48176,22.4464773 130.538718,22.3966838 L130.487191,22.346077 C130.424471,22.2834756 130.364171,22.2180235 130.282056,22.173947 Z" id="Rectangle-18-Copy-2" stroke="#C0CAD8" stroke-width="2" fill="#629FF7"></path>
                        <ellipse id="Oval-3" stroke="#C0CAD8" cx="52.7004405" cy="6.4503632" rx="1.43612335" ry="1.43341404"></ellipse>
                        <text id="+" font-family="Helvetica" font-size="20" font-weight="normal" fill="#C0CAD8">
                            <tspan x="74.2422907" y="19">+</tspan>
                        </text>
                        <g id="Group-19-Copy-2" transform="translate(46.955947, 25.801453)">
                            <path d="M35.5440529,22.9190462 C36.1377924,22.9190462 36.6191134,23.4003672 36.6191134,23.9941067 L36.6191134,38.3594042 C36.6191134,38.9531437 36.1377924,39.4344647 35.5440529,39.4344647 C34.9503133,39.4344647 34.4689923,38.9531437 34.4689923,38.3594042 L34.4689923,23.9941067 C34.4689923,23.4003672 34.9503133,22.9190462 35.5440529,22.9190462 Z" id="Rectangle-23-Copy-2" fill="#C0CAD8" transform="translate(35.544053, 31.176755) rotate(90.000000) translate(-35.544053, -31.176755) "></path>
                            <path d="M44.1304337,1.5 L12.5851229,1.8814163 L6.93668464,25.0181598 L53.8000105,25.0181598 L44.1304337,1.5 Z" id="Rectangle-22" stroke="#C0CAD8" stroke-width="3" fill="#FFFFFF"></path>
                            <polygon id="Rectangle-23-Copy-3" fill="#C0CAD8" transform="translate(36.980176, 12.900726) scale(-1, 1) rotate(19.000000) translate(-36.980176, -12.900726) " points="35.9108051 -0.00195903994 38.0645594 -0.00321005071 38.0495473 25.8034118 35.895793 25.8046628"></polygon>
                            <polygon id="Rectangle-23" fill="#C0CAD8" points="15.0792952 1.43341404 17.2334802 1.43341404 17.2334802 25.0847458 15.0792952 25.0847458"></polygon>
                            <path d="M61.3215239,25.8680387 L9.04852014,25.8680387 C6.96754112,25.8680387 5.08503741,26.7315882 3.72181458,28.1232819 C2.34748601,29.5263132 1.5,31.465282 1.5,33.6055365 L1.71634254,41.3430342 L68.8700441,41.090846 L68.8700441,33.6055365 C68.8700441,31.465282 68.022558,29.5263132 66.6482295,28.1232819 C65.2850066,26.7315882 63.4025029,25.8680387 61.3215239,25.8680387 Z" id="Rectangle-21" stroke="#C0CAD8" stroke-width="3" fill="#FFFFFF"></path>
                            <ellipse id="Oval-6" stroke="#C0CAD8" stroke-width="2" fill="#FFFFFF" cx="15.7973568" cy="42.2857143" rx="6.46255507" ry="6.4503632"></ellipse>
                            <ellipse id="Oval-6-Copy" stroke="#C0CAD8" stroke-width="2" fill="#FFFFFF" cx="50.9823789" cy="42.2857143" rx="6.46255507" ry="6.4503632"></ellipse>
                            <path d="M3.04405286,28.1985472 L6.07590319,28.1985472 C7.65920862,28.1985472 8.94273128,29.4820699 8.94273128,31.0653753 C8.94273128,32.6486807 7.65920862,33.9322034 6.07590319,33.9322034 L1.04405286,33.9322034 L1.04405286,33.9322034" id="Rectangle-24" stroke="#C0CAD8" stroke-linecap="round"></path>
                            <path d="M58.8810573,25.0847458 C58.8810573,31.0221411 63.7033647,35.8353511 69.6519824,35.8353511" id="Oval-7" stroke="#C0CAD8"></path>
                        </g>
                    </g>
                </g>
            </g>
        </g>
    </g>
</svg>