<?xml version="1.0" encoding="UTF-8"?>
<svg width="20px" height="19px" viewBox="0 0 20 19" version="1.1" xmlns="http://www.w3.org/2000/svg" xmlns:xlink="http://www.w3.org/1999/xlink">
    <!-- Generator: Sketch 64 (93537) - https://sketch.com -->
    <title>Icon</title>
    <desc>Created with Sketch.</desc>
    <defs>
        <path d="M12.2716631,1.38226586 L19.9662784,16.071986 C20.4788064,17.0504485 20.1010918,18.2591351 19.1226293,18.7716631 C18.8362888,18.921651 18.5178602,19 18.1946153,19 L2.80538468,19 C1.70081518,19 0.805384684,18.1045695 0.805384684,17 C0.805384684,16.6767551 0.88373371,16.3583266 1.03372161,16.071986 L8.72833693,1.38226586 C9.2408649,0.403803366 10.4495515,0.0260888068 11.428014,0.538616781 C11.7885142,0.727450209 12.0828296,1.02176568 12.2716631,1.38226586 Z" id="path-1"></path>
    </defs>
    <g id="Icon" stroke="none" stroke-width="1" fill="none" fill-rule="evenodd">
        <g id="Icon/3-Status/2-Warning">
            <g id="Icon" transform="translate(-0.500000, 0.000000)">
                <mask id="mask-2" fill="white">
                    <use xlink:href="#path-1"></use>
                </mask>
                <use id="三角形" fill="#DEE0E2" xlink:href="#path-1"></use>
                <g id="Color/6-#FFCA64" mask="url(#mask-2)" fill="#FFCA64">
                    <g transform="translate(0.500000, 0.000000)" id="Color">
                        <rect x="0" y="0" width="20" height="20"></rect>
                    </g>
                </g>
                <g mask="url(#mask-2)" fill="#FFFFFF">
                    <g transform="translate(9.000000, 5.000000)">
                        <circle id="椭圆形" cx="1.5" cy="1.5" r="1.5"></circle>
                        <rect id="矩形" x="0.3" y="4" width="2.5" height="8"></rect>
                    </g>
                </g>
            </g>
        </g>
    </g>
</svg>